<?xml version="1.0" encoding="utf-8"?>
<!-- Generator: Adobe Illustrator 27.8.0, SVG Export Plug-In . SVG Version: 6.00 Build 0)  -->
<svg version="1.1" id="Layer_1" xmlns="http://www.w3.org/2000/svg" xmlns:xlink="http://www.w3.org/1999/xlink" x="0px" y="0px"
	 viewBox="0 0 256 96" style="enable-background:new 0 0 256 96;" xml:space="preserve">
<style type="text/css">
	.st0{fill:#F26622;}
	.st1{fill:none;stroke:#000000;stroke-width:0.5138;}
	.st2{fill:#FFFFFF;}
</style>
<path class="st0" d="M46.7,82.7c0,0-3.2,3.2-6.3,0L13.7,56c0,0-3.2-3.2,0-6.3l26.7-26.7c0,0,3.2-3.2,6.3,0l26.7,26.7
	c0,0,3.2,3.2,0,6.3L46.7,82.7L46.7,82.7z"/>
<path class="st1" d="M46.7,82.7c0,0-3.2,3.2-6.3,0L13.7,56c0,0-3.2-3.2,0-6.3l26.7-26.7c0,0,3.2-3.2,6.3,0l26.7,26.7
	c0,0,3.2,3.2,0,6.3L46.7,82.7L46.7,82.7z"/>
<path class="st2" d="M58.5,53.8c0,0-3.2,3.2-6.3,0l-5.9-5.9c0,0-3.2-3.2-6.3,0l-5.4,5.4c0,0-3.2,3.2-6.3,0l-10-10c0,0-3.2-3.2,0-6.3
	l22.3-22.3c0,0,3.2-3.2,6.3,0L69,36.9c0,0,3.2,3.2,0,6.3L58.5,53.8L58.5,53.8z"/>
<path class="st1" d="M58.5,53.8c0,0-3.2,3.2-6.3,0l-5.9-5.9c0,0-3.2-3.2-6.3,0l-5.4,5.4c0,0-3.2,3.2-6.3,0l-10-10c0,0-3.2-3.2,0-6.3
	l22.3-22.3c0,0,3.2-3.2,6.3,0L69,36.9c0,0,3.2,3.2,0,6.3L58.5,53.8L58.5,53.8z"/>
<path class="st2" d="M57,72.5c0,0-2,2-3.9,0l-4.8-5c0,0-2-2,0-4.1l4.8-5c0,0,2-2,3.9,0l4.8,5c0,0,2,2,0,4.1L57,72.5L57,72.5z"/>
<path class="st1" d="M57,72.5c0,0-2,2-3.9,0l-4.8-5c0,0-2-2,0-4.1l4.8-5c0,0,2-2,3.9,0l4.8,5c0,0,2,2,0,4.1L57,72.5L57,72.5z"/>
<path d="M99.8,29.2l1.3,3.6h2l-6.3-17h-2.7l-6.2,17h2l1.3-3.6H99.8L99.8,29.2z M99.2,27.6h-7.5l3.7-10.5L99.2,27.6L99.2,27.6z
	 M116.5,15.8v12c0,0.8-0.1,1.4-0.2,1.9c-0.2,0.5-0.4,0.8-0.7,1c-0.3,0.2-0.7,0.4-1.2,0.5c-0.5,0.1-1.2,0.1-1.9,0.1l-1.9,0.1
	c-0.7,0-1.3-0.1-1.8-0.2s-0.9-0.3-1.1-0.5c-0.3-0.2-0.4-0.6-0.6-1.1c-0.1-0.5-0.2-1.1-0.2-1.8V15.8h-1.9v12c0,1.2,0.1,2.2,0.4,3
	s0.7,1.2,1.3,1.5c0.6,0.3,1.3,0.4,2.1,0.5s1.8,0.2,2.8,0.2c0.1,0,0.2,0,0.2,0c0.1,0,0.2,0,0.2,0c0.1,0,0.1,0,0.2,0s0.2,0,0.2,0
	c0.1,0,0.2,0,0.2,0s0.2,0,0.2,0c0.1,0,0.1,0,0.2,0s0.2,0,0.3,0c1,0,1.8-0.2,2.4-0.4s1.1-0.5,1.5-0.9c0.3-0.4,0.6-0.9,0.8-1.6
	c0.2-0.6,0.2-1.4,0.2-2.3V15.8H116.5L116.5,15.8z M133.2,20.5v-0.2c0-1.1-0.1-2-0.4-2.6c-0.3-0.6-0.7-1.1-1.3-1.3
	c-0.6-0.2-1.2-0.4-2-0.5c-0.7-0.1-1.5-0.2-2.4-0.2l-0.5,0.1c-0.9,0-1.7,0.1-2.4,0.2c-0.7,0.1-1.3,0.3-1.8,0.6
	c-0.5,0.3-0.9,0.7-1.2,1.4c-0.3,0.6-0.4,1.5-0.4,2.5c0,1.1,0.2,2,0.5,2.7c0.3,0.7,0.8,1.1,1.5,1.3c0.6,0.2,1.4,0.4,2.1,0.5
	c0.8,0.1,1.6,0.2,2.5,0.2c0.1,0,0.1,0,0.2,0s0.1,0,0.2,0c0.1,0,0.1,0,0.2,0c0.1,0,0.1,0,0.2,0c0.1,0,0.1,0,0.2,0c0.1,0,0.1,0,0.2,0
	c0.1,0,0.1,0,0.2,0c0.1,0,0.1,0,0.2,0c0.5,0,1,0.1,1.4,0.2s0.6,0.3,0.8,0.4s0.3,0.5,0.4,0.9c0.1,0.4,0.1,0.9,0.1,1.4
	c0,0.7-0.1,1.3-0.2,1.8c-0.1,0.4-0.3,0.8-0.6,0.9c-0.3,0.2-0.6,0.3-1,0.4c-0.4,0.1-1,0.1-1.6,0.1c-0.1,0-0.1,0-0.2,0
	c-0.1,0-0.1,0-0.2,0l-1.6,0.1c-0.8,0-1.4-0.1-1.9-0.2c-0.5-0.1-0.9-0.3-1.1-0.5c-0.2-0.2-0.4-0.6-0.5-1.1s-0.2-1.2-0.2-2l-1.8,0.1
	c0,0,0,0,0,0.1s0,0,0,0.1c0,0,0,0,0,0.1c0,0,0,0,0,0.1c0,0,0,0.1,0,0.1s0,0.1,0,0.1c0,0,0,0.1,0,0.1s0,0.1,0,0.1s0,0.1,0,0.1
	s0,0.1,0,0.1c0,1.1,0.1,1.9,0.4,2.6s0.7,1.1,1.3,1.3c0.6,0.2,1.2,0.4,2,0.5c0.7,0.1,1.5,0.2,2.4,0.2c0.1,0,0.3,0,0.4,0
	c0.1,0,0.3,0,0.4,0c0.1,0,0.1,0,0.2,0s0.1,0,0.2,0c0.1,0,0.1,0,0.2,0c0.1,0,0.1,0,0.2,0c0.1,0,0.3,0,0.4,0s0.3,0,0.4,0
	c0.1,0,0.1,0,0.2,0c0.1,0,0.1,0,0.2,0c0.1,0,0.1,0,0.2,0c0.1,0,0.1,0,0.2,0c0.8-0.1,1.4-0.2,1.9-0.5c0.5-0.3,0.8-0.6,1-1.1
	s0.3-1,0.4-1.5c0.1-0.6,0.2-1.2,0.2-1.8c0-1.1-0.2-2-0.5-2.6s-0.8-1.1-1.4-1.3s-1.2-0.4-2-0.5c-0.7-0.1-1.5-0.2-2.3-0.2
	c-0.2,0-0.3,0-0.5,0c-0.2,0-0.4,0-0.5,0c-0.1,0-0.2,0-0.3,0s-0.2,0-0.3,0c-0.1,0-0.2,0-0.3,0c-0.1,0-0.2,0-0.3,0
	c-0.5,0-1-0.1-1.3-0.3c-0.3-0.1-0.6-0.3-0.8-0.6s-0.3-0.5-0.3-0.9c-0.1-0.4-0.1-0.8-0.1-1.2c0-0.1,0-0.1,0-0.2c0-0.1,0-0.1,0-0.2
	s0-0.1,0-0.2c0-0.1,0-0.1,0-0.2c0-0.1,0-0.2,0-0.2s0-0.1,0.1-0.2c0-0.1,0-0.1,0.1-0.2c0-0.1,0.1-0.1,0.1-0.2
	c0.1-0.1,0.2-0.3,0.3-0.4s0.2-0.2,0.4-0.3c0.1-0.1,0.2-0.1,0.4-0.2c0.1-0.1,0.3-0.1,0.5-0.1s0.3-0.1,0.5-0.1c0.2,0,0.4,0,0.5-0.1
	c0.1,0,0.2,0,0.2,0s0.1,0,0.2,0c0.1,0,0.2,0,0.2,0c0.1,0,0.1,0,0.2,0c0.1,0,0.3,0,0.4,0c0.1,0,0.3,0,0.4-0.1l0.9,0.1
	c0.6,0,1.2,0.1,1.6,0.2c0.4,0.1,0.8,0.3,1,0.5c0.2,0.2,0.4,0.5,0.5,0.9s0.2,0.9,0.2,1.5L133.2,20.5L133.2,20.5z M141.8,17.6h5.5
	v-1.8h-12.9v1.8h5.5v15.2h2L141.8,17.6L141.8,17.6z M149,32.8h1.9v-6.9l5.8,0.1c0.5,0,1,0.1,1.4,0.2s0.7,0.3,1,0.5
	c0.3,0.2,0.4,0.5,0.6,0.9c0.1,0.4,0.2,0.8,0.2,1.4v3.9h2v-4.3c0-0.5-0.1-0.9-0.2-1.3c-0.1-0.4-0.3-0.7-0.5-1
	c-0.2-0.3-0.5-0.5-0.9-0.7c-0.3-0.2-0.8-0.3-1.3-0.3c0.7-0.1,1.3-0.3,1.8-0.6s0.7-0.6,0.8-1c0.1-0.4,0.2-0.8,0.3-1.3s0.1-1,0.1-1.6
	c0-0.9-0.1-1.7-0.3-2.3c-0.2-0.6-0.5-1.1-0.9-1.5c-0.4-0.4-0.9-0.6-1.5-0.8s-1.4-0.3-2.3-0.3H149L149,32.8L149,32.8z M150.9,24.4
	v-6.9l6.2,0.1c0.7,0,1.3,0.1,1.7,0.2c0.4,0.2,0.7,0.4,0.9,0.7s0.3,0.7,0.3,1.1c0.1,0.5,0.1,1,0.1,1.6c0,0.6-0.1,1.2-0.2,1.6
	c-0.1,0.4-0.4,0.8-0.6,1c-0.3,0.2-0.6,0.3-1.1,0.4c-0.4,0.1-0.9,0.2-1.5,0.2c0,0-0.1,0-0.1,0c0,0-0.1,0-0.1,0L150.9,24.4L150.9,24.4
	z M175.3,29.2l1.3,3.6h2l-6.3-17h-2.7l-6.2,17h2l1.3-3.6H175.3L175.3,29.2z M174.7,27.6h-7.5l3.7-10.5L174.7,27.6L174.7,27.6z
	 M182.4,15.8h-2v17h10.7V31h-8.6L182.4,15.8L182.4,15.8z M194.7,15.8h-1.9v17h1.9V15.8L194.7,15.8z M208.4,29.2l1.3,3.6h2l-6.3-17
	h-2.7l-6.2,17h2l1.3-3.6H208.4L208.4,29.2z M207.8,27.6h-7.5l3.7-10.5L207.8,27.6L207.8,27.6z M228,15.8h-1.9v15.5l-9.6-15.5h-3.1
	v17h1.9V17.4l9.6,15.4h3.1L228,15.8L228,15.8z M89,57.3h8.7c0.9,0,1.6-0.1,2.2-0.3c0.6-0.2,1-0.5,1.3-0.9c0.3-0.4,0.5-1,0.7-1.6
	s0.2-1.3,0.2-2c0-0.5,0-1-0.1-1.5c-0.1-0.4-0.2-0.8-0.4-1.1c-0.2-0.3-0.4-0.6-0.8-0.8c-0.4-0.2-0.8-0.4-1.4-0.6
	c0.5-0.2,0.9-0.4,1.2-0.6s0.5-0.5,0.6-0.8c0.1-0.3,0.2-0.7,0.3-1.1s0.1-0.8,0.1-1.3c0-0.8-0.1-1.5-0.3-2c-0.2-0.6-0.4-1-0.8-1.3
	c-0.4-0.3-0.8-0.5-1.4-0.7s-1.2-0.2-1.9-0.3H89L89,57.3L89,57.3z M90.9,55.7v-6.2H97l0.6,0.1c0.5,0,1,0.1,1.3,0.2
	c0.3,0.2,0.6,0.4,0.7,0.7c0.1,0.3,0.2,0.6,0.3,1c0.1,0.4,0.1,0.8,0.1,1.2c0,0.7-0.1,1.3-0.2,1.8c-0.1,0.5-0.4,0.8-0.6,0.9
	c-0.3,0.2-0.7,0.3-1.2,0.3c-0.5,0.1-1.1,0.1-1.9,0.1L90.9,55.7L90.9,55.7z M90.9,47.7V42L97,42c0.5,0,0.9,0,1.3,0.1
	c0.3,0.1,0.6,0.2,0.8,0.4c0.2,0.2,0.3,0.5,0.4,0.8s0.1,0.8,0.1,1.3c0,0.6-0.1,1.1-0.2,1.5s-0.3,0.7-0.5,0.9
	c-0.2,0.2-0.5,0.3-0.9,0.4c-0.4,0.1-0.9,0.2-1.5,0.2c0,0,0,0-0.1,0s-0.1,0-0.1,0L90.9,47.7L90.9,47.7z M104,49.1L104,49.1
	c0,0.2,0,0.3,0,0.5s0,0.3,0,0.4c0,0.2,0,0.3,0,0.4s0,0.3,0,0.4c0,0.3,0,0.5,0,0.8s0,0.6,0,0.9c0.1,1.1,0.2,2,0.5,2.7
	c0.3,0.7,0.7,1.2,1.2,1.5c0.5,0.3,1.1,0.5,1.8,0.7c0.7,0.1,1.6,0.2,2.5,0.2c0.1,0,0.1,0,0.2,0s0.1,0,0.2,0c0.1,0,0.1,0,0.2,0
	s0.1,0,0.2,0c0,0,0,0,0.1,0s0,0,0.1,0c0,0,0.1,0,0.1,0c0,0,0.1,0,0.1,0c0,0,0.1,0,0.1,0c0,0,0,0,0.1,0s0,0,0.1,0c0,0,0.1,0,0.1,0
	c0,0,0.1,0,0.1,0c0,0,0.1,0,0.1,0c1.1,0,2-0.1,2.7-0.3c0.7-0.2,1.3-0.5,1.7-0.9c0.4-0.4,0.7-1,0.9-1.7s0.3-1.6,0.4-2.7
	c0-0.5,0-1,0-1.5c0-0.5,0-1,0-1.5c0-0.3,0-0.5,0-0.8s0-0.5,0-0.8c0-0.2,0-0.5,0-0.7s0-0.5,0-0.8c0-1.3-0.1-2.4-0.4-3.2
	c-0.3-0.8-0.7-1.4-1.3-1.7c-0.6-0.3-1.3-0.5-2.2-0.7s-1.9-0.2-3-0.3l-0.8,0.1c-1.4,0-2.5,0.2-3.3,0.6c-0.8,0.4-1.3,0.9-1.6,1.7
	c-0.2,0.7-0.4,1.6-0.5,2.5c-0.1,0.9-0.2,2-0.2,3.1L104,49.1L104,49.1z M106,49l0.1-3.1c0-0.9,0.1-1.7,0.2-2.3c0.1-0.6,0.3-1,0.6-1.2
	c0.3-0.2,0.6-0.4,1.1-0.5s1.1-0.2,1.9-0.2l0.6,0.1c0.9,0,1.7,0,2.3,0.1s1.1,0.2,1.5,0.4c0.4,0.2,0.7,0.6,0.8,1.2
	c0.2,0.6,0.3,1.4,0.3,2.5c0,0.1,0,0.2,0,0.4c0,0.1,0,0.2,0,0.3c0,0.1,0,0.2,0,0.4s0,0.2,0,0.4c0,0.1,0,0.2,0,0.4s0,0.2,0,0.3
	c0,0.1,0,0.2,0,0.4s0,0.2,0,0.4s0,0.2,0,0.4s0,0.2,0,0.4c0,0.1,0,0.2,0,0.4s0,0.2,0,0.4c0,0.2,0,0.4,0,0.7s0,0.5,0,0.7
	c0,1-0.1,1.9-0.4,2.5c-0.2,0.6-0.5,1-0.9,1.2c-0.4,0.2-1,0.4-1.6,0.4c-0.7,0.1-1.5,0.1-2.4,0.1c-0.9,0-1.6-0.1-2.1-0.2
	c-0.6-0.1-0.9-0.3-1.2-0.6c-0.2-0.3-0.4-0.7-0.5-1.2c-0.1-0.6-0.2-1.3-0.2-2.1L106,49L106,49z M119.2,49.1L119.2,49.1
	c0,0.2,0,0.3,0,0.5s0,0.3,0,0.4c0,0.2,0,0.3,0,0.4s0,0.3,0,0.4c0,0.3,0,0.5,0,0.8s0,0.6,0,0.9c0.1,1.1,0.2,2,0.5,2.7
	c0.3,0.7,0.7,1.2,1.2,1.5c0.5,0.3,1.1,0.5,1.8,0.7s1.6,0.2,2.5,0.2c0.1,0,0.1,0,0.2,0c0.1,0,0.1,0,0.2,0c0.1,0,0.1,0,0.2,0
	c0.1,0,0.1,0,0.2,0c0,0,0,0,0.1,0s0,0,0.1,0c0,0,0.1,0,0.1,0c0,0,0.1,0,0.1,0c0,0,0.1,0,0.1,0c0,0,0,0,0.1,0c0,0,0,0,0.1,0
	c0,0,0.1,0,0.1,0c0,0,0.1,0,0.1,0c0,0,0.1,0,0.1,0c1.1,0,2-0.1,2.7-0.3s1.3-0.5,1.7-0.9c0.4-0.4,0.7-1,0.9-1.7s0.3-1.6,0.4-2.7
	c0-0.5,0-1,0-1.5c0-0.5,0-1,0-1.5c0-0.3,0-0.5,0-0.8s0-0.5,0-0.8c0-0.2,0-0.5,0-0.7s0-0.5,0-0.8c0-1.3-0.1-2.4-0.4-3.2
	c-0.3-0.8-0.7-1.4-1.3-1.7c-0.6-0.3-1.3-0.5-2.2-0.7s-1.9-0.2-3-0.3l-0.8,0.1c-1.4,0-2.5,0.2-3.3,0.6c-0.8,0.4-1.3,0.9-1.6,1.7
	c-0.2,0.7-0.4,1.6-0.5,2.5c-0.1,0.9-0.2,2-0.2,3.1L119.2,49.1L119.2,49.1z M121.2,49l0.1-3.1c0-0.9,0.1-1.7,0.2-2.3
	c0.1-0.6,0.3-1,0.6-1.2c0.3-0.2,0.6-0.4,1.1-0.5s1.1-0.2,1.9-0.2l0.6,0.1c0.9,0,1.7,0,2.3,0.1c0.6,0.1,1.1,0.2,1.5,0.4
	c0.4,0.2,0.7,0.6,0.8,1.2c0.2,0.6,0.3,1.4,0.3,2.5c0,0.1,0,0.2,0,0.4c0,0.1,0,0.2,0,0.3c0,0.1,0,0.2,0,0.4s0,0.2,0,0.4
	c0,0.1,0,0.2,0,0.4s0,0.2,0,0.3c0,0.1,0,0.2,0,0.4s0,0.2,0,0.4s0,0.2,0,0.4s0,0.2,0,0.4c0,0.1,0,0.2,0,0.4s0,0.2,0,0.4
	c0,0.2,0,0.4,0,0.7s0,0.5,0,0.7c0,1-0.1,1.9-0.4,2.5c-0.2,0.6-0.5,1-0.9,1.2c-0.4,0.2-1,0.4-1.6,0.4c-0.7,0.1-1.5,0.1-2.4,0.1
	c-0.9,0-1.6-0.1-2.1-0.2c-0.6-0.1-0.9-0.3-1.2-0.6c-0.2-0.3-0.4-0.7-0.5-1.2c-0.1-0.6-0.2-1.3-0.2-2.1L121.2,49L121.2,49z M137,40.3
	h-1.9v17h1.9v-7.9h1.7l7.8,7.9h2.6l-8.7-8.8l7.8-8.2h-2.5l-6.9,7.4H137V40.3L137,40.3z M152.4,40.3h-1.9v17h1.9v-7.9h1.7l7.8,7.9
	h2.6l-8.7-8.8l7.8-8.2H161l-6.9,7.4h-1.7V40.3L152.4,40.3z M167,42h9v-1.7h-10.9v17h10.9v-1.6h-9v-6.3h8.7v-1.6H167L167,42L167,42z
	 M179.7,42h9v-1.7h-10.9v17h10.9v-1.6h-9v-6.3h8.7v-1.6h-8.7V42L179.7,42z M191.2,57.3h1.9v-6.7l4.9,0.1c0.1,0,0.1,0,0.2,0
	c0.1,0,0.1,0,0.2,0c0,0,0.1,0,0.1,0c0,0,0.1,0,0.1,0c0,0,0.1,0,0.1,0c0,0,0.1,0,0.1,0h0c0,0,0,0,0.1,0c0.4,0,0.7,0,1.1-0.1
	c0.3,0,0.7-0.1,1-0.1c0.3-0.1,0.7-0.2,1-0.3s0.6-0.4,0.9-0.7c0.2-0.2,0.3-0.4,0.4-0.5c0.1-0.2,0.2-0.4,0.3-0.6
	c0.1-0.2,0.2-0.5,0.2-0.7s0.1-0.5,0.1-0.7c0-0.1,0-0.1,0-0.2s0-0.1,0-0.2c0-0.1,0-0.1,0-0.2s0-0.1,0-0.2s0-0.1,0-0.2s0-0.1,0-0.2
	c0-0.1,0-0.1,0-0.2s0-0.1,0-0.2c0,0,0-0.1,0-0.1c0,0,0-0.1,0-0.1c0,0,0-0.1,0-0.1c0,0,0-0.1,0-0.1c0-0.1,0-0.2,0-0.3s0-0.2,0-0.3
	c0-0.3-0.1-0.6-0.1-0.9c-0.1-0.3-0.1-0.6-0.2-0.9c-0.1-0.3-0.2-0.6-0.4-0.8c-0.2-0.3-0.4-0.5-0.6-0.7c-0.2-0.1-0.3-0.3-0.5-0.4
	s-0.4-0.2-0.6-0.2c-0.2-0.1-0.4-0.1-0.6-0.1s-0.4-0.1-0.6-0.1c-0.1,0-0.1,0-0.2,0c-0.1,0-0.1,0-0.1,0c-0.1,0-0.1,0-0.1,0
	c0,0-0.1,0-0.1,0c-0.1,0-0.2,0-0.3,0c-0.1,0-0.2,0-0.3-0.1h-0.9h-7.1L191.2,57.3L191.2,57.3z M193.1,49v-7l5.1,0.1c0,0,0.1,0,0.1,0
	c0,0,0.1,0,0.1,0c0,0,0.1,0,0.1,0s0.1,0,0.1,0c0,0,0.1,0,0.1,0c0,0,0.1,0,0.1,0c0,0,0.1,0,0.1,0s0.1,0,0.1,0c0.6,0,1.2,0.1,1.6,0.2
	s0.7,0.4,0.8,0.7c0.2,0.3,0.3,0.7,0.3,1.1c0.1,0.5,0.1,1,0.1,1.6c0,0.8-0.1,1.5-0.3,2s-0.4,0.8-0.8,1s-0.8,0.3-1.3,0.4
	s-1.2,0.1-1.9,0.1L193.1,49L193.1,49z M207.4,42h9v-1.7h-10.9v17h10.9v-1.6h-9v-6.3h8.7v-1.6h-8.7L207.4,42L207.4,42z M218.9,57.3
	h1.9v-6.9l5.8,0.1c0.5,0,1,0.1,1.4,0.2s0.7,0.3,1,0.5c0.3,0.2,0.5,0.5,0.6,0.9c0.1,0.4,0.2,0.8,0.2,1.4v3.9h2V53
	c0-0.5-0.1-0.9-0.2-1.3c-0.1-0.4-0.3-0.7-0.5-1c-0.2-0.3-0.5-0.5-0.9-0.7s-0.8-0.3-1.3-0.3c0.7-0.1,1.3-0.3,1.8-0.6s0.7-0.6,0.8-1
	c0.1-0.4,0.2-0.8,0.3-1.3c0.1-0.5,0.1-1,0.1-1.6c0-0.9-0.1-1.7-0.3-2.3c-0.2-0.6-0.5-1.1-0.9-1.5c-0.4-0.4-0.9-0.6-1.5-0.8
	s-1.4-0.3-2.3-0.3h-8.1L218.9,57.3L218.9,57.3z M220.8,48.9V42L227,42c0.7,0,1.3,0.1,1.7,0.2c0.4,0.2,0.7,0.4,0.9,0.7
	c0.2,0.3,0.3,0.7,0.3,1.1c0.1,0.5,0.1,1,0.1,1.6c0,0.6-0.1,1.2-0.2,1.6c-0.1,0.4-0.4,0.8-0.6,1c-0.3,0.2-0.6,0.3-1.1,0.4
	s-0.9,0.2-1.5,0.2c0,0-0.1,0-0.1,0c0,0-0.1,0-0.1,0L220.8,48.9L220.8,48.9z M246.4,45v-0.2c0-1.1-0.1-2-0.4-2.6s-0.7-1.1-1.3-1.3
	c-0.6-0.2-1.2-0.4-2-0.5s-1.5-0.2-2.4-0.2l-0.5,0.1c-0.9,0-1.7,0.1-2.4,0.2s-1.3,0.3-1.8,0.6s-0.9,0.7-1.2,1.4
	c-0.3,0.6-0.4,1.5-0.4,2.5c0,1.1,0.2,2,0.5,2.7c0.3,0.7,0.8,1.1,1.5,1.3c0.6,0.2,1.4,0.4,2.1,0.5s1.6,0.2,2.5,0.2c0.1,0,0.1,0,0.2,0
	c0.1,0,0.1,0,0.2,0c0.1,0,0.1,0,0.2,0c0.1,0,0.1,0,0.2,0s0.1,0,0.2,0c0.1,0,0.1,0,0.2,0c0.1,0,0.1,0,0.2,0c0.1,0,0.1,0,0.2,0
	c0.5,0,1,0.1,1.4,0.2c0.4,0.1,0.6,0.3,0.8,0.4c0.2,0.2,0.3,0.5,0.4,0.9c0.1,0.4,0.1,0.9,0.1,1.4c0,0.7-0.1,1.3-0.2,1.8
	c-0.1,0.4-0.3,0.8-0.6,0.9c-0.3,0.2-0.6,0.3-1,0.4c-0.4,0.1-1,0.1-1.6,0.1c-0.1,0-0.1,0-0.2,0s-0.1,0-0.2,0l-1.6,0.1
	c-0.8,0-1.4-0.1-1.9-0.2c-0.5-0.1-0.9-0.3-1.1-0.5c-0.2-0.2-0.4-0.6-0.5-1.1c-0.1-0.5-0.2-1.2-0.2-2L234,52c0,0,0,0,0,0.1s0,0,0,0.1
	c0,0,0,0,0,0.1c0,0,0,0,0,0.1c0,0,0,0.1,0,0.1s0,0.1,0,0.1c0,0,0,0.1,0,0.1s0,0.1,0,0.1s0,0.1,0,0.1s0,0.1,0,0.1
	c0,1.1,0.1,1.9,0.4,2.6s0.7,1.1,1.3,1.3c0.6,0.2,1.2,0.4,2,0.5s1.5,0.2,2.4,0.2c0.1,0,0.3,0,0.4,0c0.1,0,0.3,0,0.4,0
	c0.1,0,0.1,0,0.2,0c0.1,0,0.1,0,0.2,0c0.1,0,0.1,0,0.2,0c0.1,0,0.1,0,0.2,0c0.1,0,0.3,0,0.4,0s0.3,0,0.4,0c0.1,0,0.1,0,0.2,0
	c0.1,0,0.1,0,0.2,0c0.1,0,0.1,0,0.2,0c0.1,0,0.1,0,0.2,0c0.8-0.1,1.4-0.2,1.9-0.5c0.5-0.3,0.8-0.6,1-1.1c0.2-0.5,0.3-1,0.4-1.5
	c0.1-0.6,0.2-1.2,0.2-1.8c0-1.1-0.2-2-0.5-2.6s-0.8-1.1-1.4-1.3c-0.6-0.2-1.2-0.4-2-0.5c-0.7-0.1-1.5-0.2-2.3-0.2
	c-0.2,0-0.3,0-0.5,0c-0.2,0-0.4,0-0.5,0c-0.1,0-0.2,0-0.3,0c-0.1,0-0.2,0-0.3,0c-0.1,0-0.2,0-0.3,0c-0.1,0-0.2,0-0.3,0
	c-0.5,0-1-0.1-1.3-0.3c-0.3-0.1-0.6-0.3-0.8-0.6c-0.2-0.2-0.3-0.5-0.3-0.9c-0.1-0.4-0.1-0.8-0.1-1.2c0-0.1,0-0.1,0-0.2
	c0-0.1,0-0.1,0-0.2s0-0.1,0-0.2c0-0.1,0-0.1,0-0.2c0-0.1,0-0.2,0-0.2c0-0.1,0-0.1,0.1-0.2c0-0.1,0-0.1,0.1-0.2
	c0-0.1,0.1-0.1,0.1-0.2c0.1-0.1,0.2-0.3,0.3-0.4c0.1-0.1,0.2-0.2,0.4-0.3c0.1-0.1,0.2-0.1,0.4-0.2c0.1-0.1,0.3-0.1,0.5-0.1
	s0.3-0.1,0.5-0.1c0.2,0,0.4,0,0.5-0.1c0.1,0,0.2,0,0.2,0c0.1,0,0.1,0,0.2,0c0.1,0,0.2,0,0.2,0c0.1,0,0.1,0,0.2,0c0.1,0,0.3,0,0.4,0
	c0.1,0,0.2,0,0.4-0.1l0.9,0.1c0.6,0,1.2,0.1,1.6,0.2s0.8,0.3,1,0.5c0.2,0.2,0.4,0.5,0.5,0.9s0.2,0.9,0.2,1.5L246.4,45L246.4,45z
	 M103.4,64.4h-1.9V80L92,64.4h-3.1v17h1.9V66.1l9.6,15.4h3.1V64.4L103.4,64.4z M107.8,66.1h9v-1.7H106v17h10.9v-1.6h-9v-6.3h8.7
	v-1.6h-8.7V66.1L107.8,66.1z M125.3,66.2h5.5v-1.8h-12.9v1.8h5.5v15.2h2V66.2L125.3,66.2z M156.2,64.4h-2L149.5,80l-4.6-15.5h-2.8
	L137.5,80l-4.7-15.5h-2l5.2,17h2.9l4.6-15.3l4.5,15.3h2.9L156.2,64.4L156.2,64.4z M157.2,73.2L157.2,73.2c0,0.2,0,0.3,0,0.5
	s0,0.3,0,0.4c0,0.2,0,0.3,0,0.4c0,0.1,0,0.3,0,0.4c0,0.3,0,0.5,0,0.8s0,0.6,0,0.9c0.1,1.1,0.2,2,0.5,2.7c0.3,0.7,0.7,1.2,1.2,1.5
	c0.5,0.3,1.1,0.5,1.8,0.7c0.7,0.1,1.6,0.2,2.5,0.2c0.1,0,0.1,0,0.2,0c0.1,0,0.1,0,0.2,0c0.1,0,0.1,0,0.2,0s0.1,0,0.2,0
	c0,0,0,0,0.1,0c0,0,0,0,0.1,0c0,0,0.1,0,0.1,0c0,0,0.1,0,0.1,0c0,0,0.1,0,0.1,0c0,0,0,0,0.1,0s0,0,0.1,0c0,0,0.1,0,0.1,0
	c0,0,0.1,0,0.1,0c0,0,0.1,0,0.1,0c1.1,0,2-0.1,2.7-0.3s1.3-0.5,1.7-0.9c0.4-0.4,0.7-1,0.9-1.7c0.2-0.7,0.3-1.6,0.4-2.7
	c0-0.5,0-1,0-1.5c0-0.5,0-1,0-1.5c0-0.3,0-0.5,0-0.8c0-0.3,0-0.5,0-0.8c0-0.2,0-0.5,0-0.7s0-0.5,0-0.8c0-1.3-0.1-2.4-0.4-3.2
	c-0.3-0.8-0.7-1.4-1.3-1.7c-0.6-0.3-1.3-0.5-2.2-0.7c-0.9-0.1-1.9-0.2-3-0.3l-0.8,0.1c-1.4,0-2.5,0.2-3.3,0.6
	c-0.8,0.4-1.3,0.9-1.6,1.7c-0.2,0.7-0.4,1.6-0.5,2.5c-0.1,0.9-0.2,2-0.2,3.1L157.2,73.2L157.2,73.2z M159.2,73.1l0.1-3.1
	c0-0.9,0.1-1.7,0.2-2.3c0.1-0.6,0.3-1,0.6-1.2c0.3-0.2,0.6-0.4,1.1-0.5s1.1-0.2,1.9-0.2l0.6,0.1c0.9,0,1.7,0,2.3,0.1
	c0.6,0.1,1.1,0.2,1.5,0.4c0.4,0.2,0.7,0.6,0.8,1.2c0.2,0.6,0.3,1.4,0.3,2.5c0,0.1,0,0.2,0,0.4c0,0.1,0,0.2,0,0.3c0,0.1,0,0.2,0,0.4
	c0,0.1,0,0.2,0,0.4c0,0.1,0,0.2,0,0.4c0,0.1,0,0.2,0,0.3c0,0.1,0,0.2,0,0.4c0,0.1,0,0.2,0,0.4c0,0.1,0,0.2,0,0.4c0,0.1,0,0.2,0,0.4
	c0,0.1,0,0.2,0,0.4c0,0.1,0,0.2,0,0.4c0,0.2,0,0.4,0,0.7c0,0.2,0,0.5,0,0.7c0,1-0.1,1.9-0.4,2.5c-0.2,0.6-0.5,1-0.9,1.2
	c-0.4,0.2-1,0.4-1.6,0.4c-0.7,0.1-1.5,0.1-2.4,0.1c-0.9,0-1.6-0.1-2.1-0.2c-0.6-0.1-0.9-0.3-1.2-0.6c-0.2-0.3-0.4-0.7-0.5-1.2
	c-0.1-0.6-0.2-1.3-0.2-2.1L159.2,73.1L159.2,73.1z M173.1,81.4h1.9v-6.9l5.8,0.1c0.5,0,1,0.1,1.4,0.2s0.7,0.3,1,0.5
	c0.3,0.2,0.4,0.5,0.6,0.9c0.1,0.4,0.2,0.8,0.2,1.4v3.9h2v-4.3c0-0.5-0.1-0.9-0.2-1.3c-0.1-0.4-0.3-0.7-0.5-1
	c-0.2-0.3-0.5-0.5-0.9-0.7c-0.4-0.2-0.8-0.3-1.3-0.3c0.7-0.1,1.3-0.3,1.8-0.6s0.7-0.6,0.8-1c0.1-0.4,0.2-0.8,0.3-1.3
	c0.1-0.5,0.1-1,0.1-1.6c0-0.9-0.1-1.7-0.3-2.3s-0.5-1.1-0.9-1.5c-0.4-0.4-0.9-0.6-1.5-0.8c-0.6-0.2-1.4-0.3-2.3-0.3h-8.1L173.1,81.4
	L173.1,81.4z M175,73v-6.9l6.2,0.1c0.7,0,1.3,0.1,1.7,0.2c0.4,0.2,0.7,0.4,0.9,0.7c0.2,0.3,0.3,0.7,0.3,1.1c0.1,0.5,0.1,1,0.1,1.6
	c0,0.6-0.1,1.2-0.2,1.6c-0.1,0.4-0.4,0.8-0.6,1c-0.3,0.2-0.6,0.3-1.1,0.4c-0.4,0.1-0.9,0.2-1.5,0.2c0,0-0.1,0-0.1,0s-0.1,0-0.1,0
	L175,73L175,73z M190.9,64.4H189v17h1.9v-7.9h1.7l7.8,7.9h2.6l-8.7-8.8l7.8-8.2h-2.5l-6.9,7.4h-1.7V64.4L190.9,64.4z"/>
</svg>
